<svg version="1.1" id="Layer_1" xmlns="http://www.w3.org/2000/svg" xmlns:xlink="http://www.w3.org/1999/xlink" x="0px" y="0px"
	 width="100%" viewBox="0 0 1194 303" enable-background="new 0 0 1194 303" xml:space="preserve">
<path fill="#FFFFFF" opacity="1.000000" stroke="none" 
	d="
M783.000000,304.000000 
	C523.500000,304.000000 264.500000,303.990509 5.500037,304.093292 
	C1.750837,304.094788 0.900604,303.249695 0.905174,299.499878 
	C1.024814,201.333359 1.022907,103.166634 0.904413,5.000115 
	C0.900280,1.575999 1.576625,0.905265 5.000024,0.906128 
	C400.333344,1.005731 795.666687,1.005731 1191.000000,0.906128 
	C1194.423340,0.905265 1195.099731,1.576001 1195.095703,5.000115 
	C1194.977173,103.333305 1194.977173,201.666702 1195.095703,299.999878 
	C1195.099731,303.424011 1194.423706,304.097778 1190.999878,304.094971 
	C1055.166626,303.983398 919.333313,304.000000 783.000000,304.000000 
z"/>
<path fill="#7B60AA" opacity="1.000000" stroke="none" 
	d="
M221.750946,224.998245 
	C206.943634,224.999695 192.610870,224.935333 178.279617,225.052536 
	C175.306702,225.076859 174.170013,224.596741 173.855362,221.104752 
	C172.544647,206.558975 170.600937,192.071640 169.074341,177.543427 
	C167.905258,166.417770 167.179642,155.244003 165.911575,144.131027 
	C165.445602,140.047485 164.884827,135.983047 164.338684,131.827316 
	C163.559113,139.599792 162.805420,147.374969 161.994064,155.144119 
	C160.714737,167.394012 159.340942,179.634293 158.114792,191.889404 
	C157.311600,199.917221 156.687836,207.963150 156.011734,216.003342 
	C155.914261,217.162476 156.108963,218.355179 155.936447,219.497299 
	C155.388885,223.122604 154.326218,225.336441 149.533035,225.168198 
	C135.884247,224.689117 122.202736,224.796341 108.545380,225.131927 
	C104.760994,225.224930 103.413437,223.598190 103.097351,220.611069 
	C101.955093,209.816437 101.129227,198.988098 99.966499,188.195908 
	C98.807060,177.434219 97.313217,166.708923 96.105690,155.951965 
	C95.279869,148.595337 94.780807,141.202316 93.979836,133.842514 
	C92.755020,122.588058 91.332939,111.355042 90.115646,100.099831 
	C89.301758,92.574417 88.747520,85.021271 87.984055,77.489967 
	C87.388069,71.610725 86.623253,65.748741 85.994789,59.872524 
	C85.867279,58.680241 85.416557,58.036030 84.191971,58.025818 
	C83.692139,58.021648 83.191689,58.024063 82.692688,57.999573 
	C69.999954,57.376698 70.000000,57.376141 70.000000,70.009766 
	C70.000000,119.672569 69.902061,169.335846 70.143555,218.997482 
	C70.169182,224.267792 68.630783,225.280289 63.794334,225.113846 
	C53.141113,224.747253 42.460850,224.798950 31.803661,225.102600 
	C27.753387,225.218002 26.908760,223.922440 26.917763,220.096756 
	C27.040129,168.101089 26.921270,116.104721 27.125664,64.109573 
	C27.145416,59.084881 25.995644,57.378990 20.894972,57.896042 
	C16.111225,58.380962 11.235703,57.883190 6.408223,58.045532 
	C3.860065,58.131226 2.913487,57.400944 2.945872,54.701958 
	C3.079829,43.537766 3.085917,32.369976 2.943839,21.205988 
	C2.908072,18.395548 4.081205,17.959400 6.498815,17.962910 
	C44.162476,18.017607 81.826248,18.014799 119.489937,17.968304 
	C121.845299,17.965397 122.807693,18.391739 123.112831,21.159719 
	C124.357819,32.453075 125.095940,43.781158 126.059280,55.094551 
	C127.495781,71.964645 129.417679,88.792923 130.935333,105.656784 
	C131.881516,116.170364 132.463547,126.716713 133.231049,137.559799 
	C136.589233,132.704620 134.871307,127.201843 135.723160,122.211319 
	C137.296936,112.991478 137.190979,103.495911 138.032959,94.137535 
	C139.210983,81.044128 140.917908,67.991844 141.816879,54.882080 
	C142.403503,46.327240 143.294632,37.809929 143.990997,29.271069 
	C144.058502,28.443298 143.986862,27.605021 144.002274,26.772036 
	C144.164474,18.000093 144.165741,18.000040 152.703079,18.000021 
	C161.869034,17.999998 171.038193,18.140619 180.199387,17.932112 
	C183.943573,17.846895 184.919434,19.196054 185.098892,22.843979 
	C185.834702,37.801304 187.306976,52.704563 188.896378,67.600426 
	C189.945663,77.434341 190.226456,87.347778 191.023712,97.211670 
	C192.072067,110.182404 193.289795,123.139450 194.436859,136.127014 
	C195.706253,135.500656 195.914230,134.201935 196.008301,132.759308 
	C196.652328,122.884087 197.183624,112.998299 198.037689,103.140739 
	C199.215500,89.546623 200.737869,75.982498 201.936569,62.389996 
	C202.776642,52.864204 203.442307,43.318802 203.947083,33.769539 
	C204.182388,29.317953 205.623642,24.976074 205.021103,20.460560 
	C204.747360,18.409134 205.949203,17.871006 207.739044,17.994003 
	C208.568298,18.050991 209.404892,18.000193 210.238159,18.000191 
	C260.734222,18.000004 311.230438,18.048895 361.726135,17.913013 
	C366.058014,17.901358 367.409760,19.091484 368.206909,23.536278 
	C371.781006,43.465458 376.019684,63.274597 379.908020,83.148682 
	C381.471832,91.141701 382.752045,99.190208 385.000000,107.184059 
	C385.000000,105.566277 385.000000,103.948494 385.000000,102.330711 
	C385.000000,75.832771 385.087769,49.334221 384.905090,22.837542 
	C384.877747,18.874681 385.967987,17.901281 389.867065,17.912182 
	C438.029633,18.046837 486.192688,18.023010 534.355530,17.946188 
	C537.427551,17.941288 538.740112,18.261003 539.247681,21.997511 
	C541.139709,35.926147 543.684937,49.766457 546.011169,63.635529 
	C547.119446,70.242546 548.286133,76.839745 549.649109,84.731270 
	C552.231262,68.373688 554.604858,53.233089 557.018616,38.098881 
	C557.971680,32.122570 559.165649,26.180017 559.938110,20.181936 
	C560.230042,17.915035 561.451721,18.000761 562.988098,18.001072 
	C574.987183,18.003500 586.986816,18.062447 598.984985,17.958338 
	C601.883667,17.933182 602.345459,19.069414 601.735413,21.590034 
	C596.936951,41.415421 592.184448,61.251991 587.445923,81.091835 
	C581.645081,105.379189 575.855835,129.669342 570.126038,153.973480 
	C569.789917,155.399231 570.004150,156.960541 570.003723,158.458771 
	C569.998230,179.123840 569.892639,199.789948 570.096313,220.453018 
	C570.134155,224.295074 569.000244,225.174820 565.340149,225.086777 
	C555.013611,224.838394 544.673645,224.848236 534.346497,225.083557 
	C530.818420,225.163940 529.885193,224.139053 529.918884,220.639969 
	C530.093384,202.476395 529.751526,184.305481 530.097900,166.146835 
	C530.290283,156.060059 527.059448,146.741119 524.865051,137.203308 
	C519.120667,112.236008 512.894775,87.379593 507.128815,62.417080 
	C506.322113,58.924744 505.028320,57.727337 501.604401,57.951183 
	C496.974976,58.253845 490.822632,56.444973 488.072937,58.779808 
	C484.873230,61.496746 487.058929,67.842781 487.050903,72.594612 
	C486.968018,121.590668 486.944183,170.587082 487.098053,219.582794 
	C487.111450,223.845520 486.287872,225.290695 481.708710,225.125366 
	C470.890320,224.734802 460.036926,224.711075 449.220947,225.133591 
	C444.495972,225.318176 443.903320,223.627274 443.913757,219.511856 
	C444.045166,167.682892 443.909088,115.853050 444.139709,64.024765 
	C444.162903,58.806179 442.702087,57.731453 437.817017,57.880936 
	C426.007568,58.242302 426.000000,57.994545 426.000000,69.881935 
	C426.000000,119.878052 425.947693,169.874313 426.096527,219.869995 
	C426.108795,223.990158 425.144043,225.227692 420.922943,225.106262 
	C409.932892,224.790131 398.927490,224.963181 387.928741,225.028702 
	C385.553436,225.042831 384.435242,224.882095 383.836609,221.792557 
	C377.942047,191.370834 371.702942,161.015869 365.000000,130.678223 
	C365.000000,132.426666 365.000000,134.175110 365.000000,135.923553 
	C365.000000,164.088028 364.923248,192.252960 365.091278,220.416428 
	C365.113831,224.193024 364.090271,225.100082 360.378876,225.086243 
	C322.549042,224.945114 284.718231,224.943542 246.888367,225.085648 
	C243.031525,225.100128 241.892517,224.187653 241.904922,220.183960 
	C242.052429,172.521454 242.000015,124.858330 242.000000,77.195374 
	C242.000000,75.382065 242.000000,73.568756 242.000000,71.755440 
	C241.811172,71.745377 241.622345,71.735306 241.433517,71.725235 
	C240.622437,78.740974 239.703568,85.746307 239.024765,92.774818 
	C237.920212,104.211761 236.732758,115.631851 235.149170,127.018547 
	C234.107559,134.508194 233.808044,142.097839 232.972824,149.620148 
	C231.778351,160.377884 230.335754,171.107956 229.118744,181.863373 
	C228.304993,189.054794 227.714722,196.271271 226.995392,203.473648 
	C226.342133,210.014328 225.593781,216.546097 225.008118,223.092606 
	C224.829865,225.085220 223.572006,224.980499 221.750946,224.998245 
z"/>
<path fill="#7B60AA" opacity="1.000000" stroke="none" 
	d="
M1166.225098,18.625242 
	C1177.870605,19.625736 1184.552002,26.847338 1188.785889,36.126778 
	C1192.966919,45.290596 1194.181519,55.392136 1193.936523,65.473022 
	C1193.680420,76.014816 1194.879395,86.553162 1192.252197,97.105377 
	C1190.019287,106.073975 1185.180786,112.268242 1176.709839,116.830627 
	C1184.853149,119.935364 1188.734131,126.185760 1190.387207,133.932220 
	C1191.239136,137.923950 1191.907471,142.043243 1191.930298,146.108994 
	C1192.069580,170.937225 1191.934082,195.767044 1192.076294,220.595245 
	C1192.095825,224.024033 1191.291870,225.162521 1187.699341,225.086380 
	C1176.539673,224.849823 1165.368042,224.838852 1154.209106,225.090240 
	C1150.490112,225.174026 1149.916504,223.795929 1149.932129,220.503510 
	C1150.054688,194.675232 1150.021606,168.846085 1149.986694,143.017273 
	C1149.976318,135.396851 1146.381470,131.524231 1139.425415,130.953751 
	C1136.018311,130.674316 1134.896362,131.648071 1134.915894,135.259186 
	C1135.067871,163.420151 1134.925171,191.582718 1135.086182,219.743591 
	C1135.108521,223.659531 1134.485718,225.166794 1130.051636,225.116806 
	C1107.558472,224.863144 1085.059937,224.903275 1062.565552,225.093903 
	C1058.761353,225.126129 1057.988281,224.029709 1057.872437,220.369415 
	C1057.596436,211.650879 1056.584106,202.957947 1056.033569,194.244278 
	C1055.891357,191.992371 1054.629639,191.993240 1053.047241,191.997437 
	C1047.714844,192.011505 1042.355957,192.330612 1037.057617,191.905701 
	C1031.936646,191.495026 1030.919678,193.863403 1030.925659,198.302109 
	C1030.936523,206.207108 1030.086426,214.069763 1029.139282,221.929962 
	C1028.796021,224.778091 1027.702881,225.148941 1025.412964,225.024490 
	C1023.253052,224.907104 1021.081726,224.999969 1018.915466,224.999969 
	C959.759094,224.999985 900.602539,224.956375 841.446472,225.092453 
	C837.247131,225.102112 835.637756,224.384796 835.874084,219.737106 
	C836.313232,211.098557 836.000000,202.421753 836.000000,193.762222 
	C834.087341,193.500519 834.276794,194.854767 833.929260,195.914169 
	C827.347900,215.976074 810.890442,227.034943 789.863281,227.024796 
	C780.951599,227.020493 772.214783,226.888916 763.664062,223.426605 
	C749.616577,217.738541 742.234375,206.831039 737.978638,193.052017 
	C737.220459,190.597290 737.335022,187.847672 735.493591,185.462280 
	C733.158875,195.992416 730.315552,205.954544 722.663818,213.967133 
	C715.304199,221.673813 705.977295,224.559937 696.048096,224.842758 
	C677.066772,225.383438 658.058472,224.919739 639.063049,225.075027 
	C635.728760,225.102280 634.931396,224.066666 634.935547,220.859146 
	C635.021545,154.537445 635.019165,88.215553 634.939941,21.893822 
	C634.936401,18.887400 635.657959,17.905787 638.809937,17.927996 
	C658.972107,18.070049 679.153992,17.470552 699.293396,18.162153 
	C716.465759,18.751863 730.312012,29.134352 734.964050,47.436028 
	C735.477722,49.456867 735.905518,51.499554 736.482605,54.007824 
	C739.846802,33.086601 756.296143,18.545914 778.084412,16.734762 
	C787.822083,15.925314 797.080811,16.620489 806.274170,19.052528 
	C820.238586,22.746691 828.973083,32.267242 834.006775,45.503952 
	C834.295044,46.262062 834.631714,47.006805 835.015076,47.720619 
	C835.129211,47.933140 835.479492,48.018822 836.000488,48.328312 
	C836.000488,39.390263 836.132324,30.614193 835.929504,21.845865 
	C835.857849,18.745710 836.788452,17.881769 839.860107,17.931145 
	C850.855408,18.107878 861.860413,18.195250 872.850586,17.899214 
	C876.958923,17.788548 878.115051,18.825392 878.101807,23.056355 
	C877.944275,73.713745 878.000061,124.371796 878.000122,175.029678 
	C878.000122,178.529068 878.117065,182.033630 877.961731,185.526093 
	C877.852356,187.986206 878.453003,189.096039 881.232178,189.055893 
	C891.394958,188.909012 901.564819,188.837830 911.724304,189.072418 
	C916.119080,189.173874 914.970398,186.297089 914.972717,184.070740 
	C915.010986,146.910568 915.000000,109.750328 915.000000,72.590111 
	C915.000061,55.759697 915.084473,38.928493 914.927734,22.099543 
	C914.897156,18.822495 915.833313,17.868380 919.105591,17.927036 
	C929.933533,18.121134 940.773499,18.214857 951.595520,17.894033 
	C955.907837,17.766193 957.132874,18.780792 957.117065,23.301718 
	C956.934021,75.791977 957.000000,128.283112 957.000000,180.774002 
	C957.000000,188.999969 957.000000,189.000061 965.475708,188.999969 
	C972.807800,188.999878 980.143677,188.859680 987.470276,189.059708 
	C991.013855,189.156433 991.861877,187.768234 992.097473,184.388733 
	C992.999878,171.442123 994.522705,158.542267 995.747375,145.626144 
	C996.570251,136.948898 997.412537,128.242798 998.090088,119.536812 
	C999.045288,107.263016 1000.690125,95.044357 1001.909180,82.789101 
	C1002.723999,74.596855 1003.215698,66.372566 1004.022095,58.179359 
	C1005.244385,45.761204 1006.730347,33.367916 1007.837341,20.940279 
	C1008.100037,17.991341 1009.537781,17.972357 1011.707275,17.976440 
	C1032.870239,18.016279 1054.033325,18.031654 1075.196045,17.959362 
	C1077.739624,17.950674 1078.874512,18.294661 1079.111450,21.369255 
	C1080.197632,35.465614 1081.542725,49.545845 1083.040039,63.605751 
	C1084.921265,81.268646 1086.672729,98.937454 1088.078857,116.647911 
	C1089.235352,131.212601 1091.014771,145.727829 1092.526489,160.346329 
	C1093.465698,158.696838 1092.971802,156.925797 1092.973145,155.255463 
	C1093.007080,111.263115 1093.081299,67.270363 1092.878418,23.278933 
	C1092.857422,18.706358 1094.175049,17.853592 1098.425537,17.899036 
	C1119.252808,18.121717 1140.083862,17.991293 1160.913574,18.016773 
	C1162.558838,18.018785 1164.203979,18.258438 1166.225098,18.625242 
z"/>
<path fill="#FFFFFF" opacity="1.000000" stroke="none" 
	d="
M314.956360,184.000000 
	C306.142151,183.999954 297.819305,183.861572 289.505035,184.068710 
	C286.229004,184.150330 284.839264,183.540924 284.909485,179.810516 
	C285.147522,167.169479 285.091675,154.520050 284.934052,141.876495 
	C284.896301,138.848328 285.686523,137.863907 288.818573,137.927338 
	C298.631470,138.126068 308.450928,138.014603 318.267792,137.986725 
	C320.047394,137.981659 321.826538,137.803604 323.993835,137.683990 
	C323.993835,152.125687 323.974426,166.743835 324.017792,181.361786 
	C324.023376,183.240051 323.400909,184.109070 321.440063,184.013840 
	C319.448242,183.917099 317.447815,183.997299 314.956360,184.000000 
z"/>
<path fill="#FFFFFF" opacity="1.000000" stroke="none" 
	d="
M311.984497,59.000000 
	C324.000000,59.000000 324.000092,59.000000 323.999969,70.643974 
	C323.999878,78.961929 323.960052,87.280205 324.026947,95.597618 
	C324.043762,97.688156 323.995392,98.301407 321.228363,98.189819 
	C310.598511,97.761147 299.938049,97.850952 289.296509,98.086380 
	C285.712494,98.165672 284.846619,97.036995 284.921326,93.603203 
	C285.141968,83.460098 285.114044,73.307076 284.933075,63.162399 
	C284.876526,59.994495 285.649719,58.809128 289.032043,58.922405 
	C296.509827,59.172844 304.001740,59.000114 311.984497,59.000000 
z"/>
<path fill="#FFFFFF" opacity="1.000000" stroke="none" 
	d="
M787.643677,55.292442 
	C791.842712,56.219887 793.967834,58.811356 794.674255,62.419224 
	C795.365784,65.951195 795.933533,69.576035 795.944275,73.161957 
	C796.039978,105.128517 796.054993,137.095688 795.937866,169.062119 
	C795.921265,173.607849 795.573914,178.263779 793.730713,182.540787 
	C792.204773,186.081726 789.949890,188.466324 785.428406,188.091980 
	C781.103760,187.733948 779.423706,184.836807 778.378418,181.577805 
	C777.442566,178.660004 777.063232,175.449097 777.055176,172.365906 
	C776.967285,138.401352 776.988037,104.436470 777.007935,70.471703 
	C777.013306,61.317703 780.086853,56.800640 787.643677,55.292442 
z"/>
<path fill="#FFFFFF" opacity="1.000000" stroke="none" 
	d="
M691.575378,57.379028 
	C694.324097,61.918865 694.916016,66.700623 694.932983,71.410378 
	C695.057312,105.883118 695.079468,140.356796 694.955261,174.829529 
	C694.913940,186.310333 688.371033,187.968506 678.998596,187.986221 
	C677.471741,187.989105 676.979919,187.192352 677.008179,185.809601 
	C677.035461,184.477997 677.000671,183.145233 677.000610,181.812973 
	C676.999878,141.677521 676.999756,101.542068 677.000244,61.406620 
	C677.000366,54.758282 677.000488,54.828213 683.782410,54.966537 
	C686.516479,55.022301 688.833679,56.210217 691.575378,57.379028 
z"/>
<path fill="#FFFFFF" opacity="1.000000" stroke="none" 
	d="
M1035.002563,154.859955 
	C1036.400146,138.154999 1036.973877,121.857094 1038.884399,105.657524 
	C1039.501221,100.427193 1039.280151,95.135216 1039.845459,89.845840 
	C1041.089844,78.205383 1041.500732,66.475853 1042.255493,54.727715 
	C1043.679932,55.525059 1043.909058,56.845848 1044.015503,58.343330 
	C1044.984863,71.983223 1045.803101,85.637985 1047.054443,99.252647 
	C1048.515503,115.150940 1049.989746,131.041489 1051.097046,146.972565 
	C1051.865845,158.031769 1052.216919,158.139160 1041.028564,157.878799 
	C1039.005371,157.831726 1035.262451,160.164841 1035.002563,154.859955 
z"/>
<path fill="#FFFFFF" opacity="1.000000" stroke="none" 
	d="
M1152.408936,84.132858 
	C1150.929443,92.825066 1146.156494,95.913651 1137.809814,94.034096 
	C1135.863403,93.595779 1136.011597,92.444023 1136.010132,91.143127 
	C1135.998291,80.693550 1135.997437,70.243942 1136.014160,59.794373 
	C1136.015625,58.842297 1135.820557,57.799732 1136.899536,57.157589 
	C1140.107422,55.248405 1150.070801,57.852604 1151.575195,61.249420 
	C1152.412476,63.140045 1152.893555,65.337044 1152.927368,67.405937 
	C1153.016357,72.860962 1152.773438,78.321396 1152.408936,84.132858 
z"/>
</svg>